<?xml version="1.0" encoding="UTF-8"?>
<svg version="1.1" xmlns="http://www.w3.org/2000/svg" width="149" height="172">
<path d="M0 0 C49.17 0 98.34 0 149 0 C149 56.76 149 113.52 149 172 C99.83 172 50.66 172 0 172 C0 115.24 0 58.48 0 0 Z " fill="#020202" transform="translate(0,0)"/>
<path d="M0 0 C0.69308762 -0.00014603 1.38617523 -0.00029205 2.1002655 -0.0004425 C4.38360764 0.00025232 6.66686748 0.00802454 8.95019531 0.01586914 C10.53631546 0.01773485 12.12243619 0.01915803 13.70855713 0.02015686 C17.87768146 0.02397001 22.04677081 0.03379002 26.21588135 0.04486084 C30.47236661 0.05510082 34.72885753 0.05966002 38.98535156 0.06469727 C47.33302564 0.07541338 55.68066459 0.09300044 64.02832031 0.11352539 C64.02832031 5.72352539 64.02832031 11.33352539 64.02832031 17.11352539 C41.58832031 17.11352539 19.14832031 17.11352539 -3.97167969 17.11352539 C-3.97167969 33.94352539 -3.97167969 50.77352539 -3.97167969 68.11352539 C-0.01167969 68.11352539 3.94832031 68.11352539 8.02832031 68.11352539 C8.02832031 56.56352539 8.02832031 45.01352539 8.02832031 33.11352539 C10.99832031 33.11352539 13.96832031 33.11352539 17.02832031 33.11352539 C17.02832031 44.99352539 17.02832031 56.87352539 17.02832031 69.11352539 C19.99832031 69.11352539 22.96832031 69.11352539 26.02832031 69.11352539 C26.02832031 57.23352539 26.02832031 45.35352539 26.02832031 33.11352539 C28.99832031 33.11352539 31.96832031 33.11352539 35.02832031 33.11352539 C35.02832031 44.66352539 35.02832031 56.21352539 35.02832031 68.11352539 C37.66832031 68.11352539 40.30832031 68.11352539 43.02832031 68.11352539 C43.02832031 56.56352539 43.02832031 45.01352539 43.02832031 33.11352539 C46.32832031 33.11352539 49.62832031 33.11352539 53.02832031 33.11352539 C53.02832031 44.99352539 53.02832031 56.87352539 53.02832031 69.11352539 C56.65832031 69.11352539 60.28832031 69.11352539 64.02832031 69.11352539 C64.02832031 74.39352539 64.02832031 79.67352539 64.02832031 85.11352539 C54.48355817 85.20398388 44.93908188 85.27733191 35.39398766 85.32077408 C30.96155209 85.34162678 26.52942564 85.36990173 22.09716797 85.4152832 C17.81776527 85.45882417 13.53865943 85.48267993 9.25905228 85.49303436 C7.62838698 85.50041098 5.99773747 85.51481599 4.36719894 85.53644562 C2.07859254 85.56559048 -0.20879572 85.56947695 -2.49755859 85.56762695 C-4.44947617 85.58095062 -4.44947617 85.58095062 -6.44082642 85.59454346 C-11.70890129 84.87685881 -14.73727593 82.44801593 -18.28417969 78.61352539 C-21.0191449 74.56172507 -21.1029494 71.07320347 -21.14868164 66.24682617 C-21.16151688 65.06524933 -21.17435211 63.88367249 -21.18757629 62.66629028 C-21.19496323 61.39333099 -21.20235016 60.1203717 -21.20996094 58.80883789 C-21.21803268 57.49696503 -21.22610443 56.18509216 -21.23442078 54.83346558 C-21.24941831 52.05784232 -21.25927104 49.28224438 -21.2668457 46.5065918 C-21.2779137 42.96016198 -21.31232992 39.41435895 -21.3520174 35.86815071 C-21.38451945 32.47340529 -21.38896428 29.07872685 -21.39746094 25.68383789 C-21.41496902 24.41492706 -21.43247711 23.14601624 -21.45051575 21.83865356 C-21.43110487 13.9571703 -20.843849 10.1889836 -15.40917969 4.46899414 C-10.14419655 0.19119534 -6.68717264 -0.01185669 0 0 Z " fill="#FAFAFA" transform="translate(52.9716796875,42.886474609375)"/>
<path d="M0 0 C0 14.19 0 28.38 0 43 C-24.09 43 -48.18 43 -73 43 C-70.29728312 40.29728312 -68.20507241 38.81657039 -64.93359375 36.953125 C-63.38853149 36.06790161 -63.38853149 36.06790161 -61.81225586 35.16479492 C-60.69858643 34.5329126 -59.58491699 33.90103027 -58.4375 33.25 C-57.27257374 32.58425458 -56.1079462 31.91798622 -54.94360352 31.2512207 C-52.51696582 29.86218324 -50.08904911 28.47542209 -47.66015625 27.09033203 C-41.90840014 23.80827051 -36.17332148 20.49731351 -30.4375 17.1875 C-29.36177734 16.56770264 -28.28605469 15.94790527 -27.17773438 15.30932617 C-20.02614104 11.18463263 -12.89758017 7.02285057 -5.80834961 2.79174805 C-1.10604605 0 -1.10604605 0 0 0 Z " fill="#FDFDFD" transform="translate(149,129)"/>
<path d="M0 0 C24.09 0 48.18 0 73 0 C73 14.19 73 28.38 73 43 C53.46553012 32.34483461 34.17552624 21.28646463 15 10 C14.17242187 9.5138623 13.34484375 9.02772461 12.4921875 8.52685547 C10.32527686 7.25180249 8.16176792 5.97124781 6 4.6875 C5.37673828 4.32043945 4.75347656 3.95337891 4.11132812 3.57519531 C2.72347683 2.74523756 1.35841435 1.87730927 0 1 C0 0.67 0 0.34 0 0 Z " fill="#FDFDFD" transform="translate(76,0)"/>
<path d="M0 0 C8.88394989 4.73810661 17.66013551 9.44967007 26.3125 14.5625 C28.37071193 15.77148359 30.42932089 16.97979146 32.48828125 18.1875 C33.5448291 18.80753906 34.60137695 19.42757812 35.68994141 20.06640625 C39.13362047 22.07805533 42.58597791 24.07385349 46.04296875 26.0625 C46.62613358 26.39805405 47.2092984 26.73360809 47.81013489 27.07933044 C50.62921965 28.70076241 53.44944419 30.32018312 56.27075195 31.93774414 C61.91794538 35.18482484 67.54969001 38.42978492 73 42 C73 42.33 73 42.66 73 43 C48.91 43 24.82 43 0 43 C0 28.81 0 14.62 0 0 Z " fill="#FDFDFD" transform="translate(0,129)"/>
<path d="M0 0 C24.09 0 48.18 0 73 0 C70.29728312 2.70271688 68.20507241 4.18342961 64.93359375 6.046875 C63.90355225 6.63702393 62.87351074 7.22717285 61.81225586 7.83520508 C60.69858643 8.4670874 59.58491699 9.09896973 58.4375 9.75 C57.27257374 10.41574542 56.1079462 11.08201378 54.94360352 11.7487793 C52.51696582 13.13781676 50.08904911 14.52457791 47.66015625 15.90966797 C41.90840014 19.19172949 36.17332148 22.50268649 30.4375 25.8125 C29.36177734 26.43229736 28.28605469 27.05209473 27.17773438 27.69067383 C20.02614104 31.81536737 12.89758017 35.97714943 5.80834961 40.20825195 C1.10604605 43 1.10604605 43 0 43 C0 28.81 0 14.62 0 0 Z " fill="#FDFDFD" transform="translate(0,0)"/>
</svg>
